<?xml version="1.0" encoding="UTF-8"?>
<svg width="60px" height="60px" viewBox="0 0 60 60" version="1.1" xmlns="http://www.w3.org/2000/svg" xmlns:xlink="http://www.w3.org/1999/xlink">
    <!-- Generator: Sketch 62 (91390) - https://sketch.com -->
    <title>Fill 470 Copy 2</title>
    <desc>Created with Sketch.</desc>
    <g id="Главная" stroke="none" stroke-width="1" fill="none" fill-rule="evenodd">
        <g id="о-нас" transform="translate(-157.000000, -2623.000000)" fill="#303C42">
            <g id="Group-46" transform="translate(87.000000, 2623.000000)">
                <path d="M126.858182,12.5863636 L125.279091,15.2181818 C123.162727,18.7445455 120.269091,21.8454545 116.840909,24.36 C118.357273,18.4145455 118.96,12.3518182 119.069091,8.18181818 L124.362727,8.18181818 C125.966364,8.18181818 127.272727,9.48818182 127.272727,11.0918182 C127.272727,11.6181818 127.128182,12.1336364 126.858182,12.5863636 M74.7209091,15.2181818 L73.1418182,12.5863636 C72.8718182,12.1336364 72.7272727,11.6181818 72.7272727,11.0918182 C72.7272727,9.48818182 74.0309091,8.18181818 75.6345455,8.18181818 L80.9309091,8.18181818 C81.0372727,12.3518182 81.6427273,18.4145455 83.1590909,24.36 C79.7281818,21.8454545 76.8372727,18.7445455 74.7209091,15.2181818 M124.362727,5.45454545 L119.090909,5.45454545 C119.090909,2.44636364 116.644545,0 113.636364,0 L86.3636364,0 C83.3554545,0 80.9090909,2.44636364 80.9090909,5.45454545 L75.6345455,5.45454545 C72.5281818,5.45454545 70,7.98272727 70,11.0918182 C70,12.1118182 70.2754545,13.1127273 70.8018182,13.9909091 L72.3809091,16.62 C75.2445455,21.3927273 79.3927273,25.4509091 84.3645455,28.4263636 C86.4509091,34.5709091 89.6745455,40.0445455 94.5454545,42.4009091 L94.5454545,49.0909091 C94.5454545,50.5963636 93.3209091,51.8181818 91.8181818,51.8181818 C88.81,51.8181818 86.3636364,54.2672727 86.3636364,57.2727273 L86.3636364,58.6363636 C86.3636364,59.3918182 86.9718182,60 87.7272727,60 L112.272727,60 C113.025455,60 113.636364,59.3918182 113.636364,58.6363636 L113.636364,57.2727273 C113.636364,54.2672727 111.19,51.8181818 108.181818,51.8181818 C106.679091,51.8181818 105.454545,50.5963636 105.454545,49.0909091 L105.454545,42.4009091 C110.325455,40.0445455 113.549091,34.5709091 115.635455,28.4263636 C120.607273,25.4509091 124.755455,21.3927273 127.616364,16.62 L129.195455,13.9881818 C129.721818,13.1127273 130,12.1118182 130,11.0918182 C130,7.98272727 127.471818,5.45454545 124.362727,5.45454545" id="Fill-470-Copy-2"></path>
            </g>
        </g>
    </g>
</svg>