<svg width="60px" height="60px" viewBox="0 0 60 60" version="1.1" xmlns="http://www.w3.org/2000/svg" xmlns:xlink="http://www.w3.org/1999/xlink">
    <g stroke="none" stroke-width="1" fill="none" fill-rule="evenodd">
        <g id="о-нас" transform="translate(-158.000000, -1750.000000)" fill="#303C42">
            <g id="Group-43" transform="translate(88.000000, 1750.000000)">
                <g id="Group-6-Copy" transform="translate(70.000000, 0.000000)">
                    <g id="Group-5" transform="translate(0.379747, 0.000000)">
                        <path d="M42.4615728,35.2041818 C41.9556076,34.9941818 41.3792943,35.1087273 40.9869684,35.4932727 L31.2654019,45.1805455 C30.8757816,45.5705455 30.4239304,45.8678182 29.9152595,46.0696364 L16.3867785,51.5241818 C14.8959399,52.1296364 13.1426487,51.7587273 12.0116677,50.6187273 C10.8617468,49.4623636 10.5073006,47.7305455 11.1133766,46.2087273 L16.524769,32.5723636 C16.7249905,32.0623636 17.0226171,31.6069091 17.4041203,31.2141818 L42.7646108,5.35963636 C43.092,5.02418182 43.2272848,4.54145455 43.1163513,4.086 C42.5535665,1.67781818 40.5973481,0.000545454545 38.3570316,0.000545454545 L35.1751329,0.000545454545 C34.4256551,0.000545454545 33.8222848,0.608727273 33.8222848,1.36418182 L33.8222848,3.78872727 C33.8222848,4.176 33.9846266,4.54418182 34.2687247,4.80327273 C34.8504494,5.33509091 35.1751329,6.05236364 35.1751329,6.81872727 C35.1751329,8.32418182 33.9602753,9.546 32.4694367,9.546 C30.9758924,9.546 29.7637405,8.32418182 29.7637405,6.81872727 C29.7637405,6.05236364 30.0857184,5.33509091 30.6701487,4.80327273 C30.9515411,4.54418182 31.1165886,4.176 31.1165886,3.78872727 L31.1165886,1.36418182 C31.1165886,0.608727273 30.5105127,0.000545454545 29.7637405,0.000545454545 L24.3523481,0.000545454545 C23.6028703,0.000545454545 22.9995,0.608727273 22.9995,1.36418182 L22.9995,3.78872727 C22.9995,4.176 23.1618418,4.54418182 23.4459399,4.80327273 C24.0303703,5.33509091 24.3523481,6.05236364 24.3523481,6.81872727 C24.3523481,8.32418182 23.1374905,9.546 21.6466519,9.546 C20.1531076,9.546 18.9409557,8.32418182 18.9409557,6.81872727 C18.9409557,6.05236364 19.2629335,5.33509091 19.8473639,4.80327273 C20.1287563,4.54418182 20.2938038,4.176 20.2938038,3.78872727 L20.2938038,1.36418182 C20.2938038,0.608727273 19.6877278,0.000545454545 18.9409557,0.000545454545 L13.5295633,0.000545454545 C12.7800854,0.000545454545 12.1767152,0.608727273 12.1767152,1.36418182 L12.1767152,3.78872727 C12.1767152,4.176 12.339057,4.54418182 12.6231551,4.80327273 C13.2048797,5.33509091 13.5295633,6.05236364 13.5295633,6.81872727 C13.5295633,8.32418182 12.3147057,9.546 10.8238671,9.546 C9.33032278,9.546 8.11817089,8.32418182 8.11817089,6.81872727 C8.11817089,6.05236364 8.44014873,5.33509091 9.02457911,4.80327273 C9.30597152,4.54418182 9.47101899,4.176 9.47101899,3.78872727 L9.47101899,1.36418182 C9.47101899,0.608727273 8.86494304,0.000545454545 8.11817089,0.000545454545 L4.93356646,0.000545454545 C2.21434177,0.000545454545 0.00108227848,2.44690909 0.00108227848,5.45509091 L0.00108227848,54.546 C0.00108227848,57.5514545 2.21434177,60.0005455 4.93356646,60.0005455 L38.3570316,60.0005455 C41.0762563,60.0005455 43.2922215,57.5514545 43.2922215,54.546 L43.2922215,36.4614545 C43.2922215,35.9132727 42.9648323,35.4141818 42.4615728,35.2041818" id="Fill-726"></path>
                    </g>
                    <path d="M30.0270904,38.8989433 L29.5011229,37.8431256 C29.3675871,37.5812174 29.15502,37.3656887 28.8906737,37.2347346 L27.8550901,36.7163745 L50.0819835,14.4650862 L52.3875196,16.7731526 L30.0270904,38.8989433 Z M27.5171628,41.3816152 L20.8240228,44.0661748 L18.5893425,41.8263136 L21.0284143,35.726034 L23.3503016,35.726034 L24.3368312,37.7012587 C24.3504573,37.7258126 24.38316,37.7339972 24.3995113,37.7612793 C24.4567409,37.8622231 24.5057949,37.9686233 24.5930019,38.0531979 C24.6774837,38.1432288 24.7837673,38.1896084 24.8846004,38.2496291 C24.9118526,38.2659983 24.9200283,38.2960086 24.9472805,38.3096497 L27.2637174,39.4718676 L27.9886259,40.9178194 L27.5171628,41.3816152 Z M45.8524423,10.2281746 L48.1552531,12.536241 L25.9283596,34.7875294 L25.4132931,33.7508092 C25.1816494,33.2870134 24.7101863,32.997823 24.1923946,32.997823 L23.3693782,32.997823 L45.8524423,10.2281746 Z M58.0232743,7.31444532 L55.2980544,4.58623439 C53.2405134,2.52370692 49.6568492,2.5182505 47.5856821,4.59169081 L19.1452873,33.3934136 L19.1398369,33.39887 L19.1371117,33.4015982 C19.1180351,33.4206957 19.1098595,33.4479778 19.0935081,33.4698035 C18.9954002,33.5816602 18.905468,33.7044297 18.8455131,33.8435684 C18.8427879,33.8490248 18.8427879,33.851753 18.8400627,33.8544813 L13.3896229,47.4955359 C13.1852314,48.0029831 13.3051411,48.5813639 13.6921223,48.9660416 C13.9537434,49.2279499 14.2998464,49.3670886 14.6541249,49.3670886 C14.8258138,49.3670886 14.9975027,49.3343501 15.1610158,49.2716012 L28.7871153,43.8151794 C28.9560789,43.7442459 29.1086913,43.6433021 29.2395018,43.5150762 L58.0232743,15.0298258 C59.0534074,13.9985621 59.6202532,12.6290002 59.6202532,11.1721356 C59.6202532,9.71527094 59.0534074,8.34570905 58.0232743,7.31444532 L58.0232743,7.31444532 Z" id="Fill-728"></path>
                </g>
            </g>
        </g>
    </g>
</svg>
