<svg width="18px" height="11px" viewBox="0 0 18 11" version="1.1" xmlns="http://www.w3.org/2000/svg" xmlns:xlink="http://www.w3.org/1999/xlink">
    <g stroke="none" stroke-width="1" fill="none" fill-rule="evenodd">
        <g transform="translate(-44.000000, -3875.000000)" fill="#1A8CE3">
            <g transform="translate(44.000000, 3861.000000)">
                <path d="M13.8161696,22.1111065 C13.5710623,21.8719229 13.1733884,21.8719229 12.9289064,22.1111065 L9.6349653,25.790526 L9.6349653,11 L8.38441818,11 L8.38441818,25.8123804 L5.0710936,22.1111065 C4.82661164,21.8719229 4.42893766,21.8719229 4.18383043,22.1111065 C3.93872319,22.35029 3.93872319,22.7375973 4.18383043,22.9767808 L8.52447946,27.8260142 C8.65578691,27.9534978 8.82898768,28.0081336 8.99968736,27.9990277 C9.17101232,28.0081336 9.34421309,27.9534978 9.47552054,27.8260142 L13.8161696,22.9767808 C14.0612768,22.7375973 14.0612768,22.35029 13.8161696,22.1111065 L13.8161696,22.1111065 Z" id="Path-Copy-2" transform="translate(9.000000, 19.500000) scale(1, -1) rotate(90.000000) translate(-9.000000, -19.500000) "></path>
            </g>
        </g>
    </g>
</svg>
