<svg width="18px" height="11px" viewBox="0 0 18 11" version="1.1" xmlns="http://www.w3.org/2000/svg" xmlns:xlink="http://www.w3.org/1999/xlink">
    <g stroke="none" stroke-width="1" fill="none" fill-rule="evenodd">
        <g transform="translate(-314.000000, -3875.000000)" fill="#1A8CE3">
            <g transform="translate(44.000000, 3861.000000)">
                <path d="M283.81617,22.1111065 C283.571062,21.8719229 283.173388,21.8719229 282.928906,22.1111065 L279.634965,25.790526 L279.634965,11 L278.384418,11 L278.384418,25.8123804 L275.071094,22.1111065 C274.826612,21.8719229 274.428938,21.8719229 274.18383,22.1111065 C273.938723,22.35029 273.938723,22.7375973 274.18383,22.9767808 L278.524479,27.8260142 C278.655787,27.9534978 278.828988,28.0081336 278.999687,27.9990277 C279.171012,28.0081336 279.344213,27.9534978 279.475521,27.8260142 L283.81617,22.9767808 C284.061277,22.7375973 284.061277,22.35029 283.81617,22.1111065 L283.81617,22.1111065 Z" id="Path-Copy" transform="translate(279.000000, 19.500000) scale(-1, -1) rotate(90.000000) translate(-279.000000, -19.500000) "></path>
            </g>
        </g>
    </g>
</svg>
