<?xml version="1.0" encoding="UTF-8"?>
<svg width="60px" height="60px" viewBox="0 0 60 60" version="1.1" xmlns="http://www.w3.org/2000/svg" xmlns:xlink="http://www.w3.org/1999/xlink">
    <!-- Generator: Sketch 62 (91390) - https://sketch.com -->
    <title>Group 8 Copy 2</title>
    <desc>Created with Sketch.</desc>
    <g id="Главная" stroke="none" stroke-width="1" fill="none" fill-rule="evenodd">
        <g id="о-нас" transform="translate(-157.000000, -2331.000000)" fill="#303C42">
            <g id="Group-45" transform="translate(86.000000, 2331.000000)">
                <g id="Group-44">
                    <g id="Group-8-Copy-2" transform="translate(71.000000, 0.000000)">
                        <path d="M32.8925,51.24875 C31.39,51.24875 30.945,50.75875 30.1825,50.75875 C29.42,50.75875 28.9775,51.24875 27.475,51.24875 C25.97,51.24875 23.75,48.55125 23.75,46.34625 C23.75,44.14125 26.015,42.91625 27.135,42.91625 C28.2575,42.91625 29.2525,43.40625 30.1825,43.40625 C31.115,43.40625 32.11,42.91625 33.2325,42.91625 C33.9175,42.91625 35.0325,43.37875 35.795,44.24125 C34.705,44.49625 33.9075,45.22625 33.9075,46.10125 C33.9075,47.09375 34.9275,47.90375 36.25,48.03625 C35.555,49.72875 34.02,51.24875 32.8925,51.24875 M33.75,38.74875 C33.75,40.82125 32.07,42.49875 30,42.49875 C30,40.42625 31.68,38.74875 33.75,38.74875 M54.2,27.49875 L5.7975,27.49875 C2.6,27.49875 0,30.10125 0,33.29875 C0,33.67875 0.035,34.06125 0.1125,34.43625 L4.42,55.97875 C4.8875,58.30875 6.95,59.99875 9.3225,59.99875 L50.675,59.99875 C53.05,59.99875 55.1125,58.30875 55.5775,55.97875 L59.8875,34.43375 C59.9625,34.06125 60,33.67875 60,33.29875 C60,30.10125 57.4,27.49875 54.2,27.49875" id="Fill-440"></path>
                        <path d="M17.9045,24.4275 C18.137,24.785 18.5295,25 18.9545,25 L39.852,25 C40.277,25 40.6695,24.785 40.902,24.4275 C42.107,22.565 42.557,18.765 42.557,18.1325 C42.557,17.185 42.227,15.8825 41.4245,15.055 C41.992,14.0725 42.4395,12.7725 42.5395,11.325 L43.3295,10.625 C43.5945,10.3875 43.7495,10.0475 43.7495,9.69 C43.7495,5.03 38.7195,0 30.5945,0 C26.027,0 23.7545,1.435 22.897,2.1625 C20.7245,2.56 17.4395,5.115 17.4395,8.635 L17.4345,9.665 C17.4145,12.0225 17.437,13.67 17.6645,14.7975 C16.657,15.59 16.2495,17.08 16.2495,18.1325 C16.2495,18.765 16.702,22.565 17.9045,24.4275" id="Fill-442"></path>
                    </g>
                </g>
            </g>
        </g>
    </g>
</svg>