<?xml version="1.0" encoding="UTF-8"?>
<svg viewBox="0 0 25 25" version="1.1" xmlns="http://www.w3.org/2000/svg" xmlns:xlink="http://www.w3.org/1999/xlink">
    <!-- Generator: Sketch 62 (91390) - https://sketch.com -->
    <title>vk copy</title>
    <desc>Created with Sketch.</desc>
    <g id="Главная" stroke="none" stroke-width="1" fill="none" fill-rule="evenodd">
        <g id="мобильна-главная" transform="translate(-334.000000, -4242.000000)">
            <g id="Group-5-Copy-5" transform="translate(0.000000, 4231.000000)">
                <g id="vk-copy" transform="translate(334.000000, 11.000000)">
                    <rect id="Rectangle" x="0" y="0" width="25" height="25"></rect>
                    <circle id="Oval" stroke="#FFFFFF" stroke-width="2" cx="12.5" cy="12.5" r="11.5"></circle>
                    <path d="M13.2059004,17.1548462 C13.2059004,17.1548462 13.4656794,17.1273852 13.5987369,16.9914196 C13.7205303,16.8668403 13.7163063,16.631747 13.7163063,16.631747 C13.7163063,16.631747 13.7001141,15.5339755 14.2358643,15.3718884 C14.7638703,15.2124804 15.4418302,16.4334918 16.1613265,16.9030085 C16.7048207,17.2579926 17.1173695,17.1802979 17.1173695,17.1802979 L19.0400156,17.1548462 C19.0400156,17.1548462 20.0453392,17.0959055 19.5687257,16.3437411 C19.5293013,16.2821212 19.2906425,15.7871528 18.1395893,14.7704248 C16.9336234,13.7061422 17.0955452,13.878276 18.54721,12.0370472 C19.4314441,10.9158333 19.7848562,10.2313168 19.6743269,9.93862234 C19.5694297,9.65865375 18.9189262,9.73299948 18.9189262,9.73299948 L16.7548053,9.74572532 C16.7548053,9.74572532 16.5942914,9.7249621 16.4753141,9.79261001 C16.3591527,9.85891836 16.2838239,10.0136378 16.2838239,10.0136378 C16.2838239,10.0136378 15.9416759,10.8810047 15.4847747,11.6191037 C14.5209875,13.1756754 14.1358951,13.2580585 13.9781973,13.16161 C13.6114091,12.9358937 13.7029301,12.2560657 13.7029301,11.7731534 C13.7029301,10.2641361 13.9437009,9.6352114 13.2347647,9.47245454 C12.999626,9.41820226 12.82644,9.38270385 12.2245131,9.37667582 C11.4522162,9.36930822 10.7988966,9.37935494 10.4285884,9.55148874 C10.1821855,9.66602134 9.99210335,9.92187781 10.1082647,9.936613 C10.2511783,9.95469709 10.5750221,10.0196659 10.7468,10.2420333 C10.9685626,10.5293695 10.9608185,11.1736991 10.9608185,11.1736991 C10.9608185,11.1736991 11.088244,12.9499591 10.6630231,13.1703172 C10.3715637,13.3216878 9.97168711,13.0129186 9.1120932,11.6003498 C8.67208813,10.876986 8.3397963,10.0772671 8.3397963,10.0772671 C8.3397963,10.0772671 8.27573156,9.92790584 8.16097824,9.84753208 C8.02228864,9.75041379 7.82868641,9.72027363 7.82868641,9.72027363 L5.77227871,9.73299948 C5.77227871,9.73299948 5.46321915,9.74103685 5.34987384,9.86896508 C5.24920068,9.98215813 5.34212975,10.2172514 5.34212975,10.2172514 C5.34212975,10.2172514 6.95219631,13.8012512 8.77557733,15.6076514 C10.4475966,17.2633508 12.3456025,17.1548462 12.3456025,17.1548462 L13.2059004,17.1548462 Z" id="Shape" fill="#FFFCFC"></path>
                </g>
            </g>
        </g>
    </g>
</svg>
