<svg width="60px" height="50px" viewBox="0 0 60 50" version="1.1" xmlns="http://www.w3.org/2000/svg" xmlns:xlink="http://www.w3.org/1999/xlink">
    <g stroke="none" stroke-width="1" fill="none" fill-rule="evenodd">
        <g id="о-нас" transform="translate(-157.000000, -2043.000000)" fill="#303C42">
            <g id="Group" transform="translate(87.000000, 2043.000000)">
                <g id="Group-11-Copy-2" transform="translate(70.000000, 0.000000)">
                    <g id="Group-10">
                        <g id="Group-9">
                            <path d="M59.35,17.9804798 C58.9525,17.763529 58.465,17.7784912 58.075,18.0253662 L32.705,34.2443056 L32.4725,34.3640025 C30.925,35.0996402 29.045,35.1370455 27.295,34.2443056 L1.925,18.0253662 C1.54,17.7759975 1.05,17.7610354 0.6525,17.9804798 C0.25,18.1974306 0,18.6188636 0,19.0727146 L0,44.8873611 C0,47.6378977 2.2425,49.8747348 5,49.8747348 L55,49.8747348 C57.7575,49.8747348 60,47.6378977 60,44.8873611 L60,19.0727146 C60,18.6188636 59.7525,18.1974306 59.35,17.9804798" id="Fill-15"></path>
                            <path d="M30.0005,27.4280619 C28.623,27.4280619 27.5005,26.3083965 27.5005,24.934375 C27.5005,23.5603535 28.623,22.4406881 30.0005,22.4406881 C31.378,22.4406881 32.5005,23.5603535 32.5005,24.934375 C32.5005,26.3083965 31.378,27.4280619 30.0005,27.4280619 L30.0005,27.4280619 Z M22.5005,7.48106061 L37.5005,7.48106061 L37.5005,4.98737374 L22.5005,4.98737374 L22.5005,7.48106061 Z M55.0005,7.48106061 L42.5005,7.48106061 L42.5005,4.98737374 C42.5005,2.23683712 40.258,2.21483886e-15 37.5005,2.21483886e-15 L22.5005,2.21483886e-15 C19.743,2.21483886e-15 17.5005,2.23683712 17.5005,4.98737374 L17.5005,7.48106061 L5.0005,7.48106061 C2.243,7.48106061 0.0005,9.71789773 0.0005,12.4684343 L0.0005,13.1517045 C0.0005,13.5756313 0.218,13.9721275 0.5755,14.2015467 L28.6905,32.1560922 C29.1155,32.3381313 29.6305,32.3755366 29.988,32.3755366 C30.3655,32.3755366 30.908,32.3356376 31.508,32.0513573 L59.4255,14.2015467 C59.783,13.9721275 60.0005,13.5756313 60.0005,13.1517045 L60.0005,12.4684343 C60.0005,9.71789773 57.758,7.48106061 55.0005,7.48106061 L55.0005,7.48106061 Z" id="Fill-18"></path>
                        </g>
                    </g>
                </g>
            </g>
        </g>
    </g>
</svg>
