<?xml version="1.0" encoding="UTF-8"?>
<svg viewBox="0 0 25 25" version="1.1" xmlns="http://www.w3.org/2000/svg" xmlns:xlink="http://www.w3.org/1999/xlink">
    <!-- Generator: Sketch 62 (91390) - https://sketch.com -->
    <title>instagram copy</title>
    <desc>Created with Sketch.</desc>
    <g id="Главная" stroke="none" stroke-width="1" fill="none" fill-rule="evenodd">
        <g id="мобильна-главная" transform="translate(-299.000000, -4242.000000)">
            <g id="Group-5-Copy-5" transform="translate(0.000000, 4231.000000)">
                <g id="instagram-copy" transform="translate(299.000000, 11.000000)">
                    <rect id="Rectangle" x="0" y="0" width="25" height="25"></rect>
                    <circle id="Oval" stroke="#FFFFFF" stroke-width="2" cx="12.5" cy="12.5" r="11.5"></circle>
                    <path d="M12.4999872,7.37614892 C14.2193879,7.37614892 14.4230341,7.38250013 15.1020422,7.41256914 C15.7298767,7.4403805 16.0708378,7.54219833 16.2977702,7.627766 C16.598319,7.74114502 16.8128543,7.87660442 17.0381764,8.09529941 C17.2634985,8.3139944 17.4030627,8.52221981 17.5198519,8.8139289 C17.6080381,9.03418688 17.7129413,9.36511965 17.7415954,9.97446367 C17.7725756,10.6335258 17.7791193,10.8311824 17.7791193,12.5000124 C17.7791193,14.1688425 17.7725756,14.3664991 17.7415954,15.0255363 C17.7129413,15.6349052 17.6080381,15.9658379 17.5198519,16.1860959 C17.4030627,16.477805 17.2634985,16.6860304 17.0381764,16.9047254 C16.8128543,17.1234204 16.598319,17.2588798 16.2977702,17.372234 C16.0708378,17.4578265 15.7298767,17.5596443 15.1020422,17.5874557 C14.4231363,17.6175247 14.2194901,17.6238759 12.4999872,17.6238759 C10.7804843,17.6238759 10.5768381,17.6175247 9.89793227,17.5874557 C9.27009772,17.5596443 8.92913668,17.4578265 8.70222977,17.372234 C8.40165545,17.2588798 8.18712018,17.1234204 7.96179807,16.9047254 C7.73647597,16.6860304 7.59691174,16.477805 7.48012255,16.1860959 C7.39193636,15.9658379 7.28703313,15.6349052 7.25837901,15.0255611 C7.22739882,14.3664991 7.22085515,14.1688425 7.22085515,12.5000124 C7.22085515,10.8311824 7.22739882,10.6335258 7.25837901,9.97448848 C7.28703313,9.36511965 7.39193636,9.03418688 7.48012255,8.8139289 C7.59691174,8.52221981 7.73647597,8.3139944 7.96179807,8.09529941 C8.18712018,7.87660442 8.40165545,7.74114502 8.70222977,7.627766 C8.92913668,7.54219833 9.27009772,7.4403805 9.8979067,7.41256914 C10.5769404,7.38250013 10.7805866,7.37614892 12.4999872,7.37614892 M13.5560348,6.25159943 C14.3876989,6.25504872 14.6398251,6.26479882 15.1549283,6.28761107 C15.8403523,6.31797779 16.3084293,6.42361628 16.7180477,6.57812931 C17.1414948,6.73785232 17.5006043,6.95156061 17.8585891,7.29901646 C18.2165739,7.6464723 18.4367582,7.99501976 18.6013213,8.40601251 C18.7605166,8.80358337 18.8693562,9.25789336 18.9006431,9.9231578 C18.9319812,10.5897619 18.9393939,10.8026019 18.9393939,12.5000124 L18.9393363,12.743732 C18.9385929,14.2198413 18.9304143,14.4435931 18.9006431,15.076867 C18.8693562,15.7421314 18.7605166,16.1964414 18.6013213,16.5940123 C18.4367582,17.0050051 18.2165739,17.3535525 17.8585891,17.7010084 C17.5006043,18.0484642 17.1414948,18.2621725 16.7180477,18.4218955 C16.3084293,18.5764085 15.8403523,18.682047 15.1549283,18.7124137 C14.5368045,18.7397884 14.2973675,18.7483336 12.9807517,18.7497688 L12.0192234,18.7497688 C10.7026116,18.7483336 10.463193,18.7397884 9.84504611,18.7124137 C9.15962215,18.682047 8.69154519,18.5764085 8.28192672,18.4218955 C7.85847964,18.2621725 7.49937014,18.0484642 7.14138533,17.7010084 C6.78340052,17.3535525 6.56321622,17.0049802 6.39865312,16.5940123 C6.23945788,16.1964414 6.13061823,15.7421314 6.0993313,15.076867 C6.07582776,14.5769139 6.06579658,14.3322031 6.06224997,13.5249998 L6.06224997,11.475025 C6.06579658,10.6678217 6.07582776,10.4231109 6.0993313,9.9231578 C6.13061823,9.25789336 6.23945788,8.80358337 6.39865312,8.40601251 C6.56321622,7.99501976 6.78340052,7.6464723 7.14138533,7.29901646 C7.49937014,6.95156061 7.85847964,6.73785232 8.28192672,6.57812931 C8.69154519,6.42361628 9.15962215,6.31797779 9.84504611,6.28761107 C10.3601685,6.26479882 10.6122851,6.25504872 11.4439432,6.25159943 Z M12.5127766,9.30059524 C10.685201,9.30059524 9.20364358,10.7385774 9.20364358,12.5124008 C9.20364358,14.2862242 10.685201,15.7242063 12.5127766,15.7242063 C14.3403522,15.7242063 15.8219096,14.2862242 15.8219096,12.5124008 C15.8219096,10.7385774 14.3403522,9.30059524 12.5127766,9.30059524 Z M12.5127766,10.4275389 C13.6990917,10.4275389 14.6608161,11.3609773 14.6608161,12.5124008 C14.6608161,13.6638243 13.6990917,14.5972627 12.5127766,14.5972627 C11.3264614,14.5972627 10.364737,13.6638243 10.364737,12.5124008 C10.364737,11.3609773 11.3264614,10.4275389 12.5127766,10.4275389 Z M15.9241349,8.4077381 C15.5007524,8.4077381 15.1575277,8.74084342 15.1575277,9.15177341 C15.1575277,9.5627034 15.5007524,9.89583333 15.9241349,9.89583333 C16.3475173,9.89583333 16.6907167,9.5627034 16.6907167,9.15177341 C16.6907167,8.74084342 16.3475173,8.4077381 15.9241349,8.4077381 Z" id="Shape" fill="#FFFFFF"></path>
                </g>
            </g>
        </g>
    </g>
</svg>
